<svg width="138" height="17" viewBox="0 0 138 17" fill="none" xmlns="http://www.w3.org/2000/svg">
<path d="M2.98 2.42C2.86 2.63333 2.67333 2.86 2.42 3.1C2.16667 3.32667 1.94 3.48667 1.74 3.58C1.54 3.48667 1.31333 3.32667 1.06 3.1C0.806667 2.86 0.613333 2.63333 0.48 2.42C0.613333 2.19333 0.806667 1.96 1.06 1.72C1.31333 1.48 1.54 1.30667 1.74 1.2C1.94 1.30667 2.16667 1.48 2.42 1.72C2.68667 1.96 2.87333 2.19333 2.98 2.42ZM0.9 5.9C1.12667 5.78 1.37333 5.69333 1.64 5.64C1.92 5.58667 2.2 5.56 2.48 5.56V15.84C2.29333 15.9467 2.04667 16.02 1.74 16.06C1.44667 16.1133 1.16667 16.14 0.9 16.14V5.9ZM13.6316 9.76C13.6316 8.62667 13.3982 7.8 12.9316 7.28C12.4649 6.74667 11.8049 6.48 10.9516 6.48C10.6449 6.48 10.3382 6.54 10.0316 6.66C9.73823 6.76667 9.45156 6.91333 9.17156 7.1C8.9049 7.28667 8.65156 7.50667 8.41156 7.76C8.17156 8 7.95823 8.25333 7.77156 8.52V15.84C7.5849 15.9467 7.33823 16.02 7.03156 16.06C6.73823 16.1133 6.45823 16.14 6.19156 16.14V5.9C6.63156 5.67333 7.1249 5.56 7.67156 5.56V7.54C7.8449 7.31333 8.0649 7.07333 8.33156 6.82C8.61156 6.55333 8.91823 6.31333 9.25156 6.1C9.59823 5.88667 9.97156 5.71333 10.3716 5.58C10.7849 5.43333 11.2249 5.36 11.6916 5.36C12.7716 5.36 13.6249 5.68667 14.2516 6.34C14.8916 6.99333 15.2116 7.92667 15.2116 9.14V15.84C15.0249 15.9467 14.7782 16.02 14.4716 16.06C14.1782 16.1133 13.8982 16.14 13.6316 16.14V9.76ZM17.4478 6.38C17.5545 6.23333 17.7211 6.1 17.9478 5.98C18.1878 5.84667 18.4478 5.78 18.7278 5.78H19.3678V2.9C19.5811 2.72667 19.8278 2.6 20.1078 2.52C20.4011 2.42667 20.6811 2.38 20.9478 2.38V5.78H24.8678C24.8545 6.00667 24.7878 6.2 24.6678 6.36C24.5611 6.50667 24.4211 6.58 24.2478 6.58H20.9478V13.14C20.9478 13.5667 20.9945 13.9133 21.0878 14.18C21.1945 14.4333 21.3345 14.6333 21.5078 14.78C21.6811 14.9267 21.8811 15.0267 22.1078 15.08C22.3345 15.1333 22.5678 15.16 22.8078 15.16C23.2478 15.16 23.6145 15.0733 23.9078 14.9C24.2011 14.7267 24.4411 14.5467 24.6278 14.36C24.8145 14.4133 24.9345 14.5267 24.9878 14.7C24.9211 14.8067 24.8145 14.9467 24.6678 15.12C24.5211 15.2933 24.3278 15.4667 24.0878 15.64C23.8478 15.8 23.5611 15.94 23.2278 16.06C22.8945 16.18 22.5211 16.24 22.1078 16.24C21.7345 16.24 21.3811 16.1933 21.0478 16.1C20.7145 16.0067 20.4211 15.8533 20.1678 15.64C19.9278 15.4267 19.7345 15.14 19.5878 14.78C19.4411 14.42 19.3678 13.9733 19.3678 13.44V6.58H17.4478V6.38ZM28.1281 10.42C28.1281 11.26 28.2281 11.9933 28.4281 12.62C28.6415 13.2467 28.9148 13.7733 29.2481 14.2C29.5948 14.6133 29.9881 14.9267 30.4281 15.14C30.8815 15.3533 31.3548 15.46 31.8481 15.46C32.9148 15.46 33.7281 15.1067 34.2881 14.4C34.8481 13.68 35.1281 12.6 35.1281 11.16C35.1281 10.4667 35.0481 9.82 34.8881 9.22C34.7281 8.62 34.4881 8.1 34.1681 7.66C33.8615 7.22 33.4815 6.87333 33.0281 6.62C32.5748 6.36667 32.0548 6.24 31.4681 6.24C31.0415 6.24 30.6281 6.32 30.2281 6.48C29.8281 6.64 29.4748 6.89333 29.1681 7.24C28.8615 7.57333 28.6081 8.00667 28.4081 8.54C28.2215 9.06 28.1281 9.68667 28.1281 10.42ZM26.4481 11.04C26.4481 10.2267 26.5948 9.47333 26.8881 8.78C27.1815 8.07333 27.5748 7.47333 28.0681 6.98C28.5748 6.47333 29.1615 6.08 29.8281 5.8C30.5081 5.50667 31.2281 5.36 31.9881 5.36C32.8148 5.36 33.5281 5.5 34.1281 5.78C34.7415 6.06 35.2415 6.43333 35.6281 6.9C36.0281 7.36667 36.3215 7.91333 36.5081 8.54C36.7081 9.16667 36.8081 9.82667 36.8081 10.52C36.8081 11.3333 36.6815 12.0933 36.4281 12.8C36.1748 13.5067 35.8081 14.1267 35.3281 14.66C34.8615 15.18 34.2881 15.5933 33.6081 15.9C32.9281 16.2067 32.1548 16.36 31.2881 16.36C30.6481 16.36 30.0348 16.24 29.4481 16C28.8615 15.76 28.3415 15.4133 27.8881 14.96C27.4481 14.5067 27.0948 13.9533 26.8281 13.3C26.5748 12.6333 26.4481 11.88 26.4481 11.04ZM43.6197 6.38C43.7264 6.23333 43.893 6.1 44.1197 5.98C44.3597 5.84667 44.6197 5.78 44.8997 5.78H45.5397V2.9C45.753 2.72667 45.9997 2.6 46.2797 2.52C46.573 2.42667 46.853 2.38 47.1197 2.38V5.78H51.0397C51.0264 6.00667 50.9597 6.2 50.8397 6.36C50.733 6.50667 50.593 6.58 50.4197 6.58H47.1197V13.14C47.1197 13.5667 47.1664 13.9133 47.2597 14.18C47.3664 14.4333 47.5064 14.6333 47.6797 14.78C47.853 14.9267 48.053 15.0267 48.2797 15.08C48.5064 15.1333 48.7397 15.16 48.9797 15.16C49.4197 15.16 49.7864 15.0733 50.0797 14.9C50.373 14.7267 50.613 14.5467 50.7997 14.36C50.9864 14.4133 51.1064 14.5267 51.1597 14.7C51.093 14.8067 50.9864 14.9467 50.8397 15.12C50.693 15.2933 50.4997 15.4667 50.2597 15.64C50.0197 15.8 49.733 15.94 49.3997 16.06C49.0664 16.18 48.693 16.24 48.2797 16.24C47.9064 16.24 47.553 16.1933 47.2197 16.1C46.8864 16.0067 46.593 15.8533 46.3397 15.64C46.0997 15.4267 45.9064 15.14 45.7597 14.78C45.613 14.42 45.5397 13.9733 45.5397 13.44V6.58H43.6197V6.38ZM61.0548 9.76C61.0548 8.62667 60.8215 7.8 60.3548 7.28C59.8882 6.74667 59.2282 6.48 58.3748 6.48C58.0682 6.48 57.7615 6.54 57.4548 6.66C57.1482 6.76667 56.8548 6.92 56.5748 7.12C56.3082 7.30667 56.0548 7.52667 55.8148 7.78C55.5748 8.02 55.3615 8.28 55.1748 8.56V15.84C54.9882 15.9467 54.7415 16.02 54.4348 16.06C54.1415 16.1133 53.8615 16.14 53.5948 16.14V0.899999C53.8215 0.779999 54.0682 0.693333 54.3348 0.64C54.6148 0.586666 54.8948 0.56 55.1748 0.56V7.4C55.3615 7.17333 55.5882 6.94 55.8548 6.7C56.1215 6.46 56.4215 6.24 56.7548 6.04C57.0882 5.84 57.4482 5.68 57.8348 5.56C58.2348 5.42667 58.6615 5.36 59.1148 5.36C60.1948 5.36 61.0482 5.68667 61.6748 6.34C62.3148 6.99333 62.6348 7.92667 62.6348 9.14V15.84C62.4482 15.9467 62.2015 16.02 61.8948 16.06C61.6015 16.1133 61.3215 16.14 61.0548 16.14V9.76ZM67.1692 10.84C67.2092 11.56 67.3359 12.1933 67.5492 12.74C67.7759 13.2733 68.0626 13.72 68.4092 14.08C68.7559 14.44 69.1559 14.7133 69.6092 14.9C70.0759 15.0733 70.5692 15.16 71.0892 15.16C71.7426 15.16 72.3026 15.0733 72.7692 14.9C73.2492 14.7267 73.6826 14.4533 74.0692 14.08C74.2559 14.12 74.3826 14.2467 74.4492 14.46C74.3559 14.6067 74.2026 14.7867 73.9892 15C73.7892 15.2133 73.5159 15.42 73.1692 15.62C72.8359 15.82 72.4292 15.9867 71.9492 16.12C71.4826 16.2667 70.9359 16.34 70.3092 16.34C69.6426 16.34 69.0226 16.22 68.4492 15.98C67.8759 15.74 67.3759 15.3933 66.9492 14.94C66.5226 14.4867 66.1826 13.9267 65.9292 13.26C65.6892 12.5933 65.5692 11.84 65.5692 11C65.5692 10.2267 65.7026 9.5 65.9692 8.82C66.2359 8.12667 66.5959 7.52667 67.0492 7.02C67.5159 6.51333 68.0559 6.11333 68.6692 5.82C69.2959 5.51333 69.9626 5.36 70.6692 5.36C71.4292 5.36 72.0559 5.48667 72.5492 5.74C73.0426 5.99333 73.4292 6.32 73.7092 6.72C74.0026 7.12 74.2026 7.56 74.3092 8.04C74.4292 8.52 74.4892 8.98667 74.4892 9.44C74.3826 9.6 74.2359 9.74 74.0492 9.86C73.8759 9.98 73.6826 10.0733 73.4692 10.14L67.1692 10.84ZM70.1492 6.26C69.7359 6.26 69.3492 6.33333 68.9892 6.48C68.6292 6.62667 68.3159 6.85333 68.0492 7.16C67.7826 7.46667 67.5626 7.86 67.3892 8.34C67.2292 8.82 67.1426 9.4 67.1292 10.08L72.7692 9.5C72.7826 9.43333 72.7892 9.36667 72.7892 9.3C72.7892 9.23333 72.7892 9.17333 72.7892 9.12C72.7892 8.70667 72.7359 8.32667 72.6292 7.98C72.5226 7.63333 72.3559 7.33333 72.1292 7.08C71.9159 6.82667 71.6426 6.62667 71.3092 6.48C70.9892 6.33333 70.6026 6.26 70.1492 6.26ZM83.6555 10.42C83.6555 11.26 83.7555 11.9933 83.9555 12.62C84.1688 13.2467 84.4421 13.7733 84.7755 14.2C85.1221 14.6133 85.5155 14.9267 85.9555 15.14C86.4088 15.3533 86.8821 15.46 87.3755 15.46C88.4421 15.46 89.2555 15.1067 89.8155 14.4C90.3755 13.68 90.6555 12.6 90.6555 11.16C90.6555 10.4667 90.5755 9.82 90.4155 9.22C90.2555 8.62 90.0155 8.1 89.6955 7.66C89.3888 7.22 89.0088 6.87333 88.5555 6.62C88.1021 6.36667 87.5821 6.24 86.9955 6.24C86.5688 6.24 86.1555 6.32 85.7555 6.48C85.3555 6.64 85.0021 6.89333 84.6955 7.24C84.3888 7.57333 84.1355 8.00667 83.9355 8.54C83.7488 9.06 83.6555 9.68667 83.6555 10.42ZM81.9755 11.04C81.9755 10.2267 82.1221 9.47333 82.4155 8.78C82.7088 8.07333 83.1021 7.47333 83.5955 6.98C84.1021 6.47333 84.6888 6.08 85.3555 5.8C86.0355 5.50667 86.7555 5.36 87.5155 5.36C88.3421 5.36 89.0555 5.5 89.6555 5.78C90.2688 6.06 90.7688 6.43333 91.1555 6.9C91.5555 7.36667 91.8488 7.91333 92.0355 8.54C92.2355 9.16667 92.3355 9.82667 92.3355 10.52C92.3355 11.3333 92.2088 12.0933 91.9555 12.8C91.7021 13.5067 91.3355 14.1267 90.8555 14.66C90.3888 15.18 89.8155 15.5933 89.1355 15.9C88.4555 16.2067 87.6821 16.36 86.8155 16.36C86.1755 16.36 85.5621 16.24 84.9755 16C84.3888 15.76 83.8688 15.4133 83.4155 14.96C82.9755 14.5067 82.6221 13.9533 82.3555 13.3C82.1021 12.6333 81.9755 11.88 81.9755 11.04ZM103.374 7.72C103.294 7.86667 103.134 8.02 102.894 8.18C102.667 8.34 102.381 8.44 102.034 8.48C101.994 8.25333 101.914 8.01333 101.794 7.76C101.687 7.49333 101.527 7.25333 101.314 7.04C101.101 6.81333 100.834 6.63333 100.514 6.5C100.194 6.35333 99.8074 6.28 99.3541 6.28C98.9807 6.28 98.6007 6.35333 98.2141 6.5C97.8407 6.64667 97.5007 6.88667 97.1941 7.22C96.8874 7.55333 96.6341 7.98 96.4341 8.5C96.2474 9.02 96.1541 9.65333 96.1541 10.4C96.1541 11.2 96.2607 11.9 96.4741 12.5C96.6874 13.0867 96.9741 13.58 97.3341 13.98C97.6941 14.3667 98.1074 14.66 98.5741 14.86C99.0541 15.0467 99.5541 15.14 100.074 15.14C100.754 15.14 101.327 15.04 101.794 14.84C102.274 14.6267 102.681 14.3267 103.014 13.94C103.094 13.9533 103.174 14 103.254 14.08C103.334 14.16 103.387 14.2333 103.414 14.3C103.307 14.4867 103.141 14.7 102.914 14.94C102.701 15.1667 102.427 15.38 102.094 15.58C101.761 15.78 101.374 15.9467 100.934 16.08C100.494 16.2267 99.9941 16.3 99.4341 16.3C98.7674 16.3 98.1341 16.1867 97.5341 15.96C96.9474 15.7333 96.4274 15.3933 95.9741 14.94C95.5341 14.4867 95.1807 13.9333 94.9141 13.28C94.6607 12.6267 94.5341 11.8667 94.5341 11C94.5341 10.24 94.6741 9.52667 94.9541 8.86C95.2341 8.18 95.6141 7.58667 96.0941 7.08C96.5874 6.56 97.1674 6.15333 97.8341 5.86C98.5007 5.55333 99.2207 5.4 99.9941 5.4C100.634 5.4 101.167 5.49333 101.594 5.68C102.021 5.85333 102.361 6.06667 102.614 6.32C102.881 6.56 103.074 6.81333 103.194 7.08C103.314 7.34667 103.374 7.56 103.374 7.72ZM106.857 10.84C106.897 11.56 107.023 12.1933 107.237 12.74C107.463 13.2733 107.75 13.72 108.097 14.08C108.443 14.44 108.843 14.7133 109.297 14.9C109.763 15.0733 110.257 15.16 110.777 15.16C111.43 15.16 111.99 15.0733 112.457 14.9C112.937 14.7267 113.37 14.4533 113.757 14.08C113.943 14.12 114.07 14.2467 114.137 14.46C114.043 14.6067 113.89 14.7867 113.677 15C113.477 15.2133 113.203 15.42 112.857 15.62C112.523 15.82 112.117 15.9867 111.637 16.12C111.17 16.2667 110.623 16.34 109.997 16.34C109.33 16.34 108.71 16.22 108.137 15.98C107.563 15.74 107.063 15.3933 106.637 14.94C106.21 14.4867 105.87 13.9267 105.617 13.26C105.377 12.5933 105.257 11.84 105.257 11C105.257 10.2267 105.39 9.5 105.657 8.82C105.923 8.12667 106.283 7.52667 106.737 7.02C107.203 6.51333 107.743 6.11333 108.357 5.82C108.983 5.51333 109.65 5.36 110.357 5.36C111.117 5.36 111.743 5.48667 112.237 5.74C112.73 5.99333 113.117 6.32 113.397 6.72C113.69 7.12 113.89 7.56 113.997 8.04C114.117 8.52 114.177 8.98667 114.177 9.44C114.07 9.6 113.923 9.74 113.737 9.86C113.563 9.98 113.37 10.0733 113.157 10.14L106.857 10.84ZM109.837 6.26C109.423 6.26 109.037 6.33333 108.677 6.48C108.317 6.62667 108.003 6.85333 107.737 7.16C107.47 7.46667 107.25 7.86 107.077 8.34C106.917 8.82 106.83 9.4 106.817 10.08L112.457 9.5C112.47 9.43333 112.477 9.36667 112.477 9.3C112.477 9.23333 112.477 9.17333 112.477 9.12C112.477 8.70667 112.423 8.32667 112.317 7.98C112.21 7.63333 112.043 7.33333 111.817 7.08C111.603 6.82667 111.33 6.62667 110.997 6.48C110.677 6.33333 110.29 6.26 109.837 6.26ZM125.91 15.26C125.87 15.3267 125.803 15.4067 125.71 15.5C125.63 15.5933 125.537 15.6867 125.43 15.78C125.323 15.86 125.203 15.9333 125.07 16C124.95 16.0667 124.837 16.1133 124.73 16.14C124.303 16.1133 123.943 15.9533 123.65 15.66C123.357 15.3533 123.197 14.9533 123.17 14.46C123.063 14.66 122.903 14.8733 122.69 15.1C122.477 15.3133 122.217 15.5133 121.91 15.7C121.617 15.8733 121.277 16.0133 120.89 16.12C120.503 16.24 120.083 16.3 119.63 16.3C118.683 16.3 117.93 16.06 117.37 15.58C116.823 15.1 116.55 14.46 116.55 13.66C116.55 12.8333 116.863 12.14 117.49 11.58C118.117 11.02 119.19 10.6067 120.71 10.34L123.09 9.92V9.14C123.09 8.18 122.863 7.44667 122.41 6.94C121.97 6.43333 121.31 6.18 120.43 6.18C119.883 6.18 119.417 6.32 119.03 6.6C118.657 6.86667 118.47 7.26667 118.47 7.8C118.47 8.04 118.55 8.25333 118.71 8.44C118.59 8.6 118.397 8.74667 118.13 8.88C117.863 9.01333 117.59 9.09333 117.31 9.12C117.243 9.05333 117.163 8.95333 117.07 8.82C116.977 8.68667 116.93 8.50667 116.93 8.28C116.93 7.86667 117.05 7.48 117.29 7.12C117.53 6.76 117.843 6.45333 118.23 6.2C118.617 5.93333 119.063 5.72667 119.57 5.58C120.077 5.43333 120.603 5.36 121.15 5.36C122.43 5.36 123.337 5.65333 123.87 6.24C124.403 6.81333 124.67 7.62 124.67 8.66V13.68C124.67 14.2267 124.79 14.6067 125.03 14.82C125.27 15.02 125.55 15.14 125.87 15.18L125.91 15.26ZM120.27 15.24C120.963 15.24 121.55 15.08 122.03 14.76C122.523 14.44 122.877 14.0267 123.09 13.52V10.64L120.41 11.12C119.69 11.2533 119.137 11.48 118.75 11.8C118.377 12.12 118.19 12.58 118.19 13.18C118.19 13.8467 118.39 14.36 118.79 14.72C119.203 15.0667 119.697 15.24 120.27 15.24ZM135.897 9.76C135.897 8.62667 135.664 7.8 135.197 7.28C134.731 6.74667 134.071 6.48 133.217 6.48C132.911 6.48 132.604 6.54 132.297 6.66C132.004 6.76667 131.717 6.91333 131.437 7.1C131.171 7.28667 130.917 7.50667 130.677 7.76C130.437 8 130.224 8.25333 130.037 8.52V15.84C129.851 15.9467 129.604 16.02 129.297 16.06C129.004 16.1133 128.724 16.14 128.457 16.14V5.9C128.897 5.67333 129.391 5.56 129.937 5.56V7.54C130.111 7.31333 130.331 7.07333 130.597 6.82C130.877 6.55333 131.184 6.31333 131.517 6.1C131.864 5.88667 132.237 5.71333 132.637 5.58C133.051 5.43333 133.491 5.36 133.957 5.36C135.037 5.36 135.891 5.68667 136.517 6.34C137.157 6.99333 137.477 7.92667 137.477 9.14V15.84C137.291 15.9467 137.044 16.02 136.737 16.06C136.444 16.1133 136.164 16.14 135.897 16.14V9.76Z" fill="white"/>
</svg>
